<svg height="24px" width="24px" viewBox="0 0 24 24" xmlns="http://www.w3.org/2000/svg" xmlns:xlink="http://www.w3.org/1999/xlink" version="1.1" >
  <g fill="#737373">
    <path d="M22.9,3H20V1.1C20,0.5,19.5,0,18.9,0H1.1C0.5,0,0,0.5,0,1.1c0,0,0,19.2,0,19.4C0,22.4,1.6,24,3.5,24C3.7,24,4,24,4,24h16   c0,0,0.3,0,0.5,0c1.9,0,3.5-1.6,3.5-3.5c0-0.2,0-0.5,0-0.5V4.1C24,3.5,23.5,3,22.9,3z M5,20.7c0,0.6-0.3,1.1-0.8,1.3L4,22.1   c-0.2,0.1-0.3,0.1-0.5,0.1c-0.8,0-1.5-0.7-1.5-1.5C2,20.4,2,2,2,2h16v1h-1.5H6.1H3.5C3.2,3,3,3.2,3,3.5v17C3,20.8,3.2,21,3.5,21   S4,20.8,4,20.5V4h1C5,4,5,20.4,5,20.7z M22,20c0,0,0,0.4,0,0.7c0,0.8-0.7,1.3-1.5,1.3c-0.2,0-0.5,0-0.5,0H6.7C6.9,21.5,7,21,7,20.5   C7,20.3,7,5,7,5h15V20z"/>
    <rect height="1" width="7" x="13" y="9"/>
    <rect height="1" width="7" x="13" y="7"/>
    <path d="M12,7H9v3h3V7z M11,9h-1V8h1V9z"/>
    <rect height="1" width="7" x="13" y="14"/>
    <rect height="1" width="7" x="13" y="12"/>
    <path d="M12,12H9v3h3V12z M11,14h-1v-1h1V14z"/>
    <rect height="1" width="7" x="13" y="19"/>
    <rect height="1" width="7" x="13" y="17"/>
    <path d="M12,17H9v3h3V17z M11,19h-1v-1h1V19z"/>
  </g>
</svg>