<svg xmlns="http://www.w3.org/2000/svg" width="363" height="363" viewBox="0 0 363 363">
  <g fill="none" fill-rule="evenodd" opacity=".1" transform="translate(-2 -1)">
    <path fill="#464646" fill-rule="nonzero" d="M84.5527864 2.89442719C84.0588079 2.64743794 83.8585836 2.0467649 84.1055728 1.5527864 84.3525621 1.05880791 84.9532351.85858356 85.4472136 1.10557281L99.4472136 8.10557281C99.9411921 8.35256206 100.141416 8.9532351 99.8944272 9.4472136 99.6474379 9.94119209 99.0467649 10.1414164 98.5527864 9.89442719L84.5527864 2.89442719zM26.0352362 186.736883C26.1805519 186.204058 26.7302931 185.88992 27.2631174 186.035236 27.7959418 186.180552 28.1100796 186.730293 27.9647638 187.263117L21.9647638 209.263117C21.8194481 209.795942 21.2697069 210.11008 20.7368826 209.964764 20.2040582 209.819448 19.8899204 209.269707 20.0352362 208.736883L26.0352362 186.736883zM2.63499477 102.931005C2.12081464 102.729419 1.86740771 102.149175 2.06899453 101.634995 2.27058136 101.120815 2.85082511 100.867408 3.36500523 101.068995 4.16441753 101.382408 5.27412861 102.153999 6.35400569 103.559798 7.48295966 105.029486 8.32422863 106.927429 8.76973732 109.295276 9.37459788 112.510067 8.97714407 115.316335 7.93846495 117.648307 7.51338864 118.602659 7.07828269 119.272388 6.76458595 119.644522 6.4086264 120.066791 5.77774738 120.120546 5.35547822 119.764586 4.93320906 119.408626 4.8794545 118.777747 5.23541405 118.355478 5.27352135 118.310272 5.36088528 118.193419 5.48173793 118.007398 5.69418514 117.680392 5.90924139 117.288648 6.11149594 116.83456 6.99108971 114.859756 7.33058949 112.462679 6.80422448 109.665086 6.41639317 107.60379 5.70414126 105.996916 4.76793647 104.778151 4.27222447 104.132826 3.7473101 103.640504 3.22942946 103.280417 2.93620056 103.076533 2.72508169 102.966324 2.63499477 102.931005zM229.462187 176.015671C229.00407 175.707211 228.88275 175.085778 229.191209 174.627661 229.499669 174.169544 230.121103 174.048223 230.579219 174.356683 230.908434 174.578351 231.455989 175.000636 232.14901 175.625567 233.291104 176.655451 234.430616 177.891242 235.493662 179.335503 237.836269 182.518184 239.474467 186.249382 240.091247 190.528285 240.843968 195.75027 240.077103 200.358882 238.334095 204.252746 237.561539 205.97863 236.779655 207.185661 236.235685 207.837676 235.881881 208.261753 235.251285 208.318721 234.827207 207.964918 234.40313 207.611114 234.346162 206.980517 234.699965 206.55644 234.797068 206.440051 234.986852 206.1845 235.239011 205.795231 235.669747 205.130283 236.102939 204.341943 236.508636 203.435617 238.103634 199.872407 238.807633 195.641599 238.111707 190.813625 237.544556 186.879029 236.039403 183.450856 233.88294 180.521073 232.903912 179.190959 231.855487 178.05395 230.809645 177.110863 230.446226 176.78315 230.11035 176.503881 229.811125 176.273113 229.637053 176.138864 229.517695 176.053045 229.462187 176.015671z"/>
    <polygon stroke="#464646" stroke-linejoin="round" stroke-width="2" points="163.545 37.762 171.543 42.38 171.543 51.616 163.545 56.234 155.546 51.616 155.546 42.38" transform="rotate(30 163.545 46.998)"/>
    <polygon stroke="#464646" stroke-linejoin="round" stroke-width="2" points="96 108 108.364 116.983 103.641 131.517 88.359 131.517 83.636 116.983"/>
    <circle cx="162.5" cy="266.5" r="2.5" fill="#464646" fill-rule="nonzero"/>
    <circle cx="339.5" cy="188.5" r="2.5" fill="#464646" fill-rule="nonzero"/>
    <circle cx="242.5" cy="81.5" r="2.5" fill="#464646" fill-rule="nonzero"/>
    <circle cx="35" cy="39" r="3" fill="#464646" fill-rule="nonzero"/>
    <circle cx="353" cy="14" r="11" stroke="#464646" stroke-width="2"/>
    <circle cx="35" cy="39" r="3" fill="#464646" fill-rule="nonzero"/>
    <polygon stroke="#464646" stroke-width="2" points="102.123 196.537 104.069 205.107 95.241 203.04" transform="rotate(65 99.655 200.822)"/>
    <polygon stroke="#464646" stroke-width="2" points="17.705 344.525 10.891 354.415 -.049 346.585" transform="rotate(65 8.828 349.47)"/>
    <polygon stroke="#464646" stroke-width="2" points="269.555 3.222 272.731 16.071 259.575 13.773" transform="rotate(65 266.153 9.647)"/>
    <path fill="#464646" fill-rule="nonzero" d="M310,104 L310,117 L323,117 L323,104 L310,104 Z M325,102 L325,119 L308,119 L308,102 L325,102 Z"/>
    <rect width="5" height="5" x="186" y="139" fill="#464646" fill-rule="nonzero"/>
    <rect width="5" height="5" x="82" y="343" fill="#464646" fill-rule="nonzero"/>
    <rect width="5" height="5" x="252" y="307" fill="#464646" fill-rule="nonzero"/>
    <polygon fill="#464646" fill-rule="nonzero" points="59.142 264.896 60.104 263.142 65.866 266.3 62.897 271.602 68.257 274.495 64.921 280.85 63.15 279.921 65.567 275.316 60.159 272.398 63.134 267.084"/>
    <polygon fill="#464646" fill-rule="nonzero" points="339.935 333.993 353.011 334.079 352.998 336.079 341.935 336.007 341.935 348 328.004 348 328.004 360 326.004 360 326.004 346 339.935 346"/>
    <path fill="#464646" fill-rule="nonzero" d="M314.747975,243.69557 C314.747975,243.143285 315.19569,242.69557 315.747975,242.69557 C316.30026,242.69557 316.747975,243.143285 316.747975,243.69557 C316.747975,257.670381 305.418356,269 291.443544,269 C280.153562,269 271,259.846438 271,248.556456 C271,239.413088 278.412021,232 287.554835,232 C294.980144,232 300.998704,238.019642 300.998704,245.445489 C300.998704,251.495436 296.093556,256.400583 290.043609,256.400583 C285.09275,256.400583 281.079857,252.387126 281.079857,247.436832 C281.079857,243.365265 284.379292,240.06583 288.450859,240.06583 C291.818917,240.06583 294.548308,242.794622 294.548308,246.161659 C294.548308,248.966155 292.27452,251.239943 289.470025,251.239943 C287.115644,251.239943 285.20837,249.332014 285.20837,246.976668 C285.20837,246.424383 285.656085,245.976668 286.20837,245.976668 C286.760655,245.976668 287.20837,246.424383 287.20837,246.976668 C287.20837,248.227598 288.220368,249.239943 289.470025,249.239943 C291.16995,249.239943 292.548308,247.861585 292.548308,246.161659 C292.548308,243.899289 290.714446,242.06583 288.450859,242.06583 C285.483862,242.06583 283.079857,244.469835 283.079857,247.436832 C283.079857,251.282619 286.197383,254.400583 290.043609,254.400583 C294.988986,254.400583 298.998704,250.390866 298.998704,245.445489 C298.998704,239.124131 293.875494,234 287.554835,234 C279.516655,234 273,240.517593 273,248.556456 C273,258.741868 281.258132,267 291.443544,267 C304.313786,267 314.747975,256.565811 314.747975,243.69557 Z"/>
  </g>
</svg>
